<?xml version="1.0" encoding="UTF-8" standalone="no" ?>
<!DOCTYPE svg PUBLIC "-//W3C//DTD SVG 1.1//EN" "http://www.w3.org/Graphics/SVG/1.1/DTD/svg11.dtd">
<svg xmlns="http://www.w3.org/2000/svg" xmlns:xlink="http://www.w3.org/1999/xlink" version="1.1" width="1080" height="1080" viewBox="0 0 1080 1080" xml:space="preserve">
<desc>Created with Fabric.js 5.2.4</desc>
<defs>
</defs>
<g transform="matrix(1 0 0 1 540 540)" id="a108628f-a9e3-47b6-aeb9-62679fc920b4"  >
</g>
<g transform="matrix(1 0 0 1 540 540)" id="31527c9e-e795-4696-bc00-ab3112c30161"  >
<rect style="stroke: none; stroke-width: 1; stroke-dasharray: none; stroke-linecap: butt; stroke-dashoffset: 0; stroke-linejoin: miter; stroke-miterlimit: 4; fill: rgb(255,255,255); fill-rule: nonzero; opacity: 1; visibility: hidden;" vector-effect="non-scaling-stroke"  x="-540" y="-540" rx="0" ry="0" width="224.22508" height="312.80777" />
</g>
<g transform="matrix(1 0 0 1 556.34 540)"  >
<g style="" vector-effect="non-scaling-stroke"   >
		<g transform="matrix(1 0 0 1 0 0)" id="rect6347-8"  >
<rect style="stroke: rgb(0,0,0); stroke-width: 1; stroke-dasharray: none; stroke-linecap: butt; stroke-dashoffset: 0; stroke-linejoin: miter; stroke-miterlimit: 4; fill: rgb(255,255,255); fill-rule: nonzero; opacity: 1;" vector-effect="non-scaling-stroke"  x="-111.615" y="-155.905" rx="10.629921" ry="10.629921" width="223.23" height="311.81" />
</g>
		<g transform="matrix(0.3 0 0 0.3 -93.98 -125.63)"  >
<path style="stroke: none; stroke-width: 1; stroke-dasharray: none; stroke-linecap: butt; stroke-dashoffset: 0; stroke-linejoin: miter; stroke-miterlimit: 4; fill: rgb(0,0,0); fill-rule: nonzero; opacity: 1;" vector-effect="non-scaling-stroke"  transform=" translate(-1979.23, 2546.57)" d="M 1947.7014 -2492.4202 L 1948.2488999999998 -2499.1255 C 1949.9409999999998 -2519.8487 1954.4747999999997 -2526.8484000000003 1980.2087 -2548.4682000000003 C 1992.6968 -2558.9599000000003 1996.7966999999999 -2564.1375000000003 1997.3739999999998 -2570.1456000000003 C 1999.0044999999998 -2584.2952000000005 1986.2428999999997 -2588.7158000000004 1977.9263999999998 -2588.7925000000005 C 1967.1574999999998 -2588.8915000000006 1954.9754999999998 -2582.4431000000004 1960.7834999999998 -2567.4881000000005 L 1948.7044999999998 -2563.9411000000005 C 1946.2653999999998 -2577.8923000000004 1948.7604999999999 -2590.9853000000003 1960.0820999999999 -2596.7995000000005 C 1975.1828999999998 -2604.3717000000006 1994.5602 -2601.4007000000006 2004.3368999999998 -2589.4695000000006 C 2010.9075999999998 -2581.4509000000007 2012.4012999999998 -2570.3833000000004 2008.8800999999999 -2561.7155000000007 C 1998.5810999999999 -2539.555500000001 1963.6365999999998 -2529.8072000000006 1960.7480999999998 -2504.1878000000006 L 1999.3817999999999 -2504.1878000000006 L 1999.3817999999999 -2518.454300000001 L 2010.7605999999998 -2518.454300000001 L 2010.7605999999998 -2492.190400000001 z" stroke-linecap="round" />
</g>
		<g transform="matrix(0.3 0 0 0.3 93.64 125.51)"  >
<path style="stroke: none; stroke-width: 1; stroke-dasharray: none; stroke-linecap: butt; stroke-dashoffset: 0; stroke-linejoin: miter; stroke-miterlimit: 4; fill: rgb(0,0,0); fill-rule: nonzero; opacity: 1;" vector-effect="non-scaling-stroke"  transform=" translate(-2602.44, 1712.38)" d="M 2633.9663 -1766.5324 L 2633.4188 -1759.8271 C 2631.7266999999997 -1739.1039 2627.1929 -1732.1042 2601.459 -1710.4844 C 2588.9709 -1699.9927 2584.8709999999996 -1694.8151 2584.2936999999997 -1688.807 C 2582.6631999999995 -1674.6574 2595.4248 -1670.2368000000001 2603.7412999999997 -1670.1601 C 2614.5101999999997 -1670.0611000000001 2626.6921999999995 -1676.5095000000001 2620.8841999999995 -1691.4645 L 2632.9631999999997 -1695.0115 C 2635.4022999999997 -1681.0603 2632.9071999999996 -1667.9673 2621.5856 -1662.1531 C 2606.4847999999997 -1654.5809 2587.1075 -1657.5519 2577.3307999999997 -1669.4831 C 2570.7600999999995 -1677.5017 2569.2663999999995 -1688.5692999999999 2572.7875999999997 -1697.2370999999998 C 2583.0865999999996 -1719.3971 2618.0310999999997 -1729.1453999999999 2620.9195999999997 -1754.7648 L 2582.2859 -1754.7648 L 2582.2859 -1740.4983 L 2570.9071 -1740.4983 L 2570.9071 -1766.7622 z" stroke-linecap="round" />
</g>
		<g transform="matrix(1 0 0 1 -0.03 -99.19)"  >
<path style="stroke: none; stroke-width: 1; stroke-dasharray: none; stroke-linecap: butt; stroke-dashoffset: 0; stroke-linejoin: miter; stroke-miterlimit: 4; fill: rgb(0,0,0); fill-rule: nonzero; opacity: 1;" vector-effect="non-scaling-stroke"  transform=" translate(-422.29, 509.47)" d="M 414.935 -480.90282 C 417.814 -486.67839000000004 419.9109 -492.60382000000004 420.2831 -498.94015 C 420.6247 -501.27184 419.2085 -501.31094 418.995 -499.66875 C 414.9186 -484.07596 393.2323 -488.29832 393.9779 -502.96526 C 394.5829 -514.86003 406.39739999999995 -517.41902 412.56019999999995 -513.52977 C 414.99379999999996 -512.09699 414.8563 -512.95517 413.52809999999994 -514.44154 C 404.3732999999999 -524.65299 409.91799999999995 -537.8032800000001 422.2892999999999 -538.04398 C 435.6688999999999 -537.2505500000001 439.1404999999999 -523.17409 430.9334999999999 -514.89565 C 429.9128999999999 -513.90103 427.6499999999999 -510.70431 431.0564999999999 -512.93935 C 439.3432999999999 -518.82735 450.84379999999993 -512.4965 450.60919999999993 -503.41859999999997 C 450.1764999999999 -486.67970999999994 429.77009999999996 -485.43130999999994 425.40599999999995 -499.41283 C 424.98619999999994 -500.96299999999997 423.77689999999996 -501.74147999999997 424.11099999999993 -499.10856 C 424.7158999999999 -494.34193 425.9674999999999 -487.15513 429.54839999999996 -480.90282 z" stroke-linecap="round" />
</g>
		<g transform="matrix(1 0 0 1 -0.03 99.61)"  >
<path style="stroke: none; stroke-width: 1; stroke-dasharray: none; stroke-linecap: butt; stroke-dashoffset: 0; stroke-linejoin: miter; stroke-miterlimit: 4; fill: rgb(0,0,0); fill-rule: nonzero; opacity: 1;" vector-effect="non-scaling-stroke"  transform=" translate(-422.29, 310.67)" d="M 429.637 -339.23596 C 426.758 -333.46047 424.6611 -327.53497 424.2889 -321.19867 C 423.9473 -318.86697 425.3635 -318.82787 425.577 -320.47007 C 429.6534 -336.06286 451.3397 -331.84047000000004 450.5941 -317.17357000000004 C 449.9891 -305.27877000000007 438.17460000000005 -302.71977000000004 432.01180000000005 -306.60907000000003 C 429.57820000000004 -308.04187 429.7157 -307.18367 431.04390000000006 -305.69727 C 440.1987000000001 -295.48587 434.65400000000005 -282.33554 422.2827000000001 -282.09484 C 408.9031000000001 -282.88827 405.4315000000001 -296.96477 413.6385000000001 -305.24316999999996 C 414.6591000000001 -306.23776999999995 416.9220000000001 -309.43447 413.5155000000001 -307.19946999999996 C 405.2287000000001 -301.31147 393.7282000000001 -307.64226999999994 393.9628000000001 -316.72016999999994 C 394.3955000000001 -333.45906999999994 414.80190000000005 -334.70745999999997 419.16600000000005 -320.72596999999996 C 419.58580000000006 -319.17576999999994 420.79510000000005 -318.39736999999997 420.46100000000007 -321.03027 C 419.8561000000001 -325.79686999999996 418.6045000000001 -332.98366999999996 415.02360000000004 -339.23596 z" stroke-linecap="round" />
</g>
		<g transform="matrix(1 0 0 1 -93.87 -93.17)"  >
<path style="stroke: none; stroke-width: 1; stroke-dasharray: none; stroke-linecap: butt; stroke-dashoffset: 0; stroke-linejoin: miter; stroke-miterlimit: 4; fill: rgb(0,0,0); fill-rule: nonzero; opacity: 1;" vector-effect="non-scaling-stroke"  transform=" translate(-328.46, 503.45)" d="M 324.4147 -491.52695 C 325.60679999999996 -493.97203 326.76689999999996 -496.24773 327.399 -498.92782 C 327.8182 -501.45539 326.9607 -500.51635 326.4738 -498.85962 C 325.7526 -496.56221 323.7512 -495.51587 321.8938 -495.49075 C 318.5227 -495.44525 316.8411 -498.09497999999996 316.9459 -500.94464 C 316.57779999999997 -503.94322999999997 319.6169 -506.06482 321.9076 -505.90138 C 323.6299 -505.77848 325.1316 -504.84933 326.0405 -504.12626 C 326.6368 -503.81096 327.2745 -503.67165 326.3854 -504.48474 C 324.7078 -506.31766999999996 323.3088 -507.44889 323.3394 -510.19556 C 323.3684 -512.77426 325.5729 -515.46369 328.4948 -515.37931 C 332.1463 -515.27385 333.8068 -512.4892100000001 333.7981 -509.89879 C 333.7881 -508.01045 332.8445 -506.27250000000004 331.38669999999996 -505.19612 C 330.44249999999994 -504.43003 330.7073 -503.85631 331.78439999999995 -504.58129 C 332.81929999999994 -505.47330000000005 334.0515 -505.86386000000005 335.32919999999996 -505.89125 C 338.81969999999995 -505.94595000000004 340.1842 -502.92977 339.98429999999996 -500.12707 C 339.79689999999994 -497.50136 337.56149999999997 -494.79867 334.61529999999993 -495.10476 C 331.98459999999994 -495.40626 330.60229999999996 -497.61467 329.81019999999995 -499.88163 C 329.54789999999997 -500.57671999999997 329.13419999999996 -500.76444 329.1457 -499.72855999999996 C 329.7534 -494.67112999999995 331.6373 -491.52412 331.65099999999995 -491.52699999999993 z" stroke-linecap="round" />
</g>
		<g transform="matrix(1 0 0 1 93.86 93.1)"  >
<path style="stroke: none; stroke-width: 1; stroke-dasharray: none; stroke-linecap: butt; stroke-dashoffset: 0; stroke-linejoin: miter; stroke-miterlimit: 4; fill: rgb(0,0,0); fill-rule: nonzero; opacity: 1;" vector-effect="non-scaling-stroke"  transform=" translate(-516.18, 317.18)" d="M 520.2279 -329.1097 C 519.0358 -326.66461999999996 517.8756999999999 -324.38892 517.2436 -321.70883 C 516.8244 -319.18125999999995 517.6819 -320.1203 518.1688 -321.77702999999997 C 518.89 -324.07444 520.8914 -325.12077999999997 522.7488000000001 -325.1459 C 526.1199 -325.1914 527.8015 -322.54167 527.6967000000001 -319.69201 C 528.0648000000001 -316.69342 525.0257 -314.57183 522.7350000000001 -314.73526999999996 C 521.0127000000001 -314.85817 519.5110000000001 -315.78731999999997 518.6021000000002 -316.51039 C 518.0058000000001 -316.82568999999995 517.3681000000001 -316.965 518.2572000000001 -316.15191 C 519.9348000000001 -314.31898 521.3338000000001 -313.18775999999997 521.3032000000002 -310.44109 C 521.2742000000002 -307.86238999999995 519.0697000000001 -305.17296 516.1478000000002 -305.25734 C 512.4963000000001 -305.3628 510.8358000000002 -308.14744 510.8445000000002 -310.73786 C 510.8545000000002 -312.62620000000004 511.7981000000002 -314.36415 513.2559000000002 -315.44053 C 514.2001000000002 -316.20662000000004 513.9353000000002 -316.78034 512.8582000000002 -316.05536 C 511.82330000000024 -315.16335 510.5911000000002 -314.77279 509.31340000000023 -314.7454 C 505.82290000000023 -314.6907 504.4584000000002 -317.70688 504.6583000000002 -320.50958 C 504.84570000000025 -323.13529000000005 507.0811000000002 -325.83798 510.0273000000002 -325.53189000000003 C 512.6580000000002 -325.23039000000006 514.0403000000002 -323.02198000000004 514.8324000000002 -320.75502000000006 C 515.0947000000002 -320.05993000000007 515.5084000000003 -319.87221000000005 515.4969000000002 -320.9080900000001 C 514.8892000000002 -325.9655200000001 513.0053000000003 -329.11253000000005 512.9916000000002 -329.1096500000001 z" stroke-linecap="round" />
</g>
</g>
</g>
<g transform="matrix(1.79 0 0 1.79 505.75 463.76)"  >
<path style="stroke: rgb(0,0,0); stroke-width: 0; stroke-dasharray: none; stroke-linecap: butt; stroke-dashoffset: 0; stroke-linejoin: miter; stroke-miterlimit: 4; fill: rgb(255,255,255); fill-rule: nonzero; opacity: 1;" vector-effect="non-scaling-stroke"  transform=" translate(-50, -50)" d="M 90.375 90.375 L 9.625 90.375 L 9.625 9.625 L 90.375 9.625 L 90.375 90.375 z M 11.625 88.375 L 88.375 88.375 L 88.375 11.625 L 11.625 11.625 L 11.625 88.375 z" stroke-linecap="round" />
</g>
<g transform="matrix(1 0 0 1 556.33 442.04)"  >
<path style="stroke: rgb(255,255,255); stroke-width: 0; stroke-dasharray: none; stroke-linecap: butt; stroke-dashoffset: 0; stroke-linejoin: miter; stroke-miterlimit: 4; fill: rgb(255,255,255); fill-rule: nonzero; opacity: 1;" vector-effect="non-scaling-stroke"  transform=" translate(-50, -50)" d="M 90.375 90.375 L 9.625 90.375 L 9.625 9.625 L 90.375 9.625 L 90.375 90.375 z M 11.625 88.375 L 88.375 88.375 L 88.375 11.625 L 11.625 11.625 L 11.625 88.375 z" stroke-linecap="round" />
</g>
<g transform="matrix(1 0 0 1 556.33 439.7)" id="c8925237-9719-4db9-8050-b6a0fc62bdb5"  >
<circle style="stroke: rgb(0,0,0); stroke-width: 0; stroke-dasharray: none; stroke-linecap: butt; stroke-dashoffset: 0; stroke-linejoin: miter; stroke-miterlimit: 4; fill: rgb(255,255,255); fill-rule: nonzero; opacity: 1;" vector-effect="non-scaling-stroke"  cx="0" cy="0" r="35" />
</g>
<g transform="matrix(1 0 0 1 558.66 638.64)" id="c8925237-9719-4db9-8050-b6a0fc62bdb5"  >
<circle style="stroke: rgb(0,0,0); stroke-width: 0; stroke-dasharray: none; stroke-linecap: butt; stroke-dashoffset: 0; stroke-linejoin: miter; stroke-miterlimit: 4; fill: rgb(255,255,255); fill-rule: nonzero; opacity: 1;" vector-effect="non-scaling-stroke"  cx="0" cy="0" r="35" />
</g>
<g transform="matrix(1 0 0 1 484.01 428.03)" id="68c55f97-58b2-4fc3-bd9c-d2288e72ccd7"  >
<rect style="stroke: rgb(0,0,0); stroke-width: 0; stroke-dasharray: none; stroke-linecap: butt; stroke-dashoffset: 0; stroke-linejoin: miter; stroke-miterlimit: 4; fill: rgb(255,255,255); fill-rule: nonzero; opacity: 1;" vector-effect="non-scaling-stroke"  x="-33.085" y="-33.085" rx="0" ry="0" width="66.17" height="66.17" />
</g>
<g transform="matrix(1 0 0 1 631.64 652.64)" id="68c55f97-58b2-4fc3-bd9c-d2288e72ccd7"  >
<rect style="stroke: rgb(0,0,0); stroke-width: 0; stroke-dasharray: none; stroke-linecap: butt; stroke-dashoffset: 0; stroke-linejoin: miter; stroke-miterlimit: 4; fill: rgb(255,255,255); fill-rule: nonzero; opacity: 1;" vector-effect="non-scaling-stroke"  x="-33.085" y="-33.085" rx="0" ry="0" width="66.17" height="66.17" />
</g>
</svg>